Coordinates
version=1
nRows=6
nColumns=107
inDegrees=yes

Units are S.I. units (second, meters, Newtons, ...)
If the header above contains a line with 'inDegrees', this indicates whether rotational values are in degrees (yes) or radians (no).

endheader
time	sternoclavicular_r2	sternoclavicular_r3	unrotscap_r3	unrotscap_r2	acromioclavicular_r2	acromioclavicular_r3	acromioclavicular_r1	unrothum_r1	unrothum_r3	unrothum_r2	elv_angle	shoulder_elv	shoulder1_r2	shoulder_rot	elbow_flexion	pro_sup	deviation	flexion	proximal_distal_r1	proximal_distal_r3	cmc_flexion	cmc_abduction	mp_flexion	ip_flexion	mcp2_flexion	mcp2_abduction	pm2_flexion	md2_flexion	mcp3_flexion	mcp3_abduction	pm3_flexion	md3_flexion	mcp4_flexion	mcp4_abduction	pm4_flexion	md4_flexion	mcp5_flexion	mcp5_abduction	pm5_flexion	md5_flexion	bicpt_tx	bicpt_ty	bicpt_tz	bicpt2_tx	bicpt2_ty	bicpt2_tz	ptpt_tx	ptpt_ty	ptpt_tz	FCUpt_tx	FCUpt_ty	FCUpt_tz	EDCpt_tx	EDCpt_ty	EDCpt_tz	APLpt_tx	APLpt_ty	APLpt_tz	FPLpt_tx	FPLpt_ty	FPLpt_tz	FPLpt2_tx	FPLpt2_ty	FPLpt2_tz	PEC1pt2_tx	PEC1pt2_ty	PEC1pt2_tz	PEC1pt3_tx	PEC1pt3_ty	PEC1pt3_tz	PEC2pt2_tx	PEC2pt2_ty	PEC2pt2_tz	PEC2pt3_tx	PEC2pt3_ty	PEC2pt3_tz	PEC3pt2_tx	PEC3pt2_ty	PEC3pt2_tz	PEC3pt3_tx	PEC3pt3_ty	PEC3pt3_tz	DELT2pt2a_tx	DELT2pt2a_ty	DELT2pt2a_tz	DELT2pt2_tx	DELT2pt2_ty	DELT2pt2_tz	LAT1pt2_tx	LAT1pt2_ty	LAT1pt2_tz	LAT1pt3_tx	LAT1pt3_ty	LAT1pt3_tz	LAT2pt2_tx	LAT2pt2_ty	LAT2pt2_tz	LAT2pt3_tx	LAT2pt3_ty	LAT2pt3_tz	LAT3pt2_tx	LAT3pt2_ty	LAT3pt2_tz	LAT3pt3_tx	LAT3pt3_ty	LAT3pt3_tz
      1.20000000	     -0.35454716	      0.15016944	     -0.15016944	      0.35454716	     -0.07178859	      0.58017012	      0.26078247	     -0.26078247	     -0.58017012	      0.07178859	     94.04674084	     83.94219194	     -1.64142528	     19.02491927	     27.92417657	    -56.86726745	      0.33844585	      1.19402502	      0.36556230	      0.59701251	     33.37132868	    -23.50417186	     -7.84671600	      8.01828969	     -3.67787484	      0.29410467	     28.28218719	    -12.75027482	      7.28785732	     -6.25160470	     15.26907066	     16.12486134	     12.58645337	    -11.93728007	      8.59528740	     19.17196238	     34.04446438	    -14.42052829	    -17.56561056	      5.02879740	      0.00082365	     -0.03080054	     -0.00481552	      0.00566016	     -0.01778574	     -0.01123264	      0.01175185	     -0.06218301	      0.00453096	     -0.00052421	     -0.18417795	      0.00383441	      0.00682406	     -0.00111218	     -0.00170091	     -0.00241560	     -0.00096624	     -0.00483121	     -0.00309197	     -0.00927592	     -0.00521771	     -0.00001198	     -0.00021559	     -0.00025871	      0.00275144	      0.00965336	      0.00671538	     -0.00900048	      0.02173172	     -0.02061249	      0.00275144	      0.00965336	      0.00671538	      0.00060625	      0.02014614	     -0.01058605	      0.00423118	      0.00536811	      0.01661707	      0.00000000	      0.00943802	      0.00000000	     -0.00788125	     -0.03642162	     -0.00778992	     -0.01892826	     -0.00148188	     -0.00538463	     -0.00097933	      0.01641538	     -0.00671538	      0.00270481	      0.02369037	     -0.01958653	     -0.00657548	      0.01422355	     -0.00601586	     -0.01371057	      0.03003268	     -0.03362354	     -0.02574229	      0.01590240	     -0.00806778	     -0.01706826	      0.03469614	     -0.04201777
      1.23333333	     -0.35368719	      0.14980520	     -0.14980520	      0.35368719	     -0.07161446	      0.57876289	      0.26014994	     -0.26014994	     -0.57876289	      0.07161446	     93.81499596	     83.73858691	     -1.63738057	     19.24054238	     28.58645046	    -60.87080342	      0.34938901	      1.19824286	      0.37425278	      0.59912143	     35.10166158	    -23.90589346	     -6.78976399	      8.26600687	     -5.90608924	     -1.14376631	     27.28771132	    -13.03343907	      7.48127922	     -7.76711640	     15.05698225	     16.00177317	     14.11947223	    -12.92468848	      8.30932373	     19.07683817	     36.42801177	    -14.47695186	    -17.37020854	      4.93540349	      0.00084555	     -0.03087644	     -0.00482775	      0.00474713	     -0.01796565	     -0.01110504	      0.01204767	     -0.06199174	      0.00485347	     -0.00080511	     -0.18414884	      0.00416092	      0.00730448	     -0.00115287	     -0.00188670	     -0.00242837	     -0.00097135	     -0.00485674	     -0.00310831	     -0.00932494	     -0.00524528	     -0.00001275	     -0.00019303	     -0.00023163	      0.00274477	      0.00962995	      0.00669909	     -0.00897864	      0.02167901	     -0.02056249	      0.00274477	      0.00962995	      0.00669909	      0.00060478	      0.02009728	     -0.01056038	      0.00422404	      0.00535509	      0.01660180	      0.00000000	      0.00939189	      0.00000000	     -0.00786213	     -0.03633327	     -0.00775170	     -0.01916550	     -0.00151686	     -0.00550304	     -0.00097695	      0.01637556	     -0.00669909	      0.00269825	      0.02363291	     -0.01953902	     -0.00655953	      0.01418905	     -0.00600127	     -0.01367731	      0.02995983	     -0.03354198	     -0.02567986	      0.01586382	     -0.00804822	     -0.01702686	      0.03461198	     -0.04191585
      1.26666667	     -0.35310730	      0.14955959	     -0.14955959	      0.35310730	     -0.07149705	      0.57781397	      0.25972340	     -0.25972340	     -0.57781397	      0.07149705	     93.60565369	     83.60129178	     -1.63372686	     19.34465743	     29.34120124	    -64.92027552	      0.37531483	      1.19626462	      0.39405968	      0.59813231	     35.35119598	    -24.02246646	     -5.50119931	      6.78237192	     -4.04478872	     -2.67191318	     21.99700429	    -14.88641066	     10.78789637	     -9.04710157	     10.13949279	     13.96187399	     24.43057605	    -13.11702405	    -13.85605200	     20.21408766	     43.06347057	    -14.50753598	    -29.08165692	      4.90036367	      0.00087052	     -0.03096295	     -0.00484168	      0.00378632	     -0.01817068	     -0.01095311	      0.01234688	     -0.06179826	      0.00517968	     -0.00108421	     -0.18411476	      0.00450346	      0.00779041	     -0.00118900	     -0.00208345	     -0.00242238	     -0.00096895	     -0.00484476	     -0.00310065	     -0.00930194	     -0.00523234	     -0.00001280	     -0.00018953	     -0.00022744	      0.00274027	      0.00961416	      0.00668811	     -0.00896392	      0.02164346	     -0.02052878	      0.00274027	      0.00961416	      0.00668811	      0.00060379	      0.02006433	     -0.01054306	      0.00421922	      0.00534631	      0.01659145	      0.00000000	      0.00936085	      0.00000000	     -0.00784924	     -0.03627370	     -0.00772599	     -0.01928035	     -0.00153398	     -0.00556089	     -0.00097535	      0.01634871	     -0.00668811	      0.00269382	      0.02359416	     -0.01950698	     -0.00654877	      0.01416579	     -0.00599143	     -0.01365489	      0.02991071	     -0.03348699	     -0.02563775	      0.01583781	     -0.00803502	     -0.01699894	      0.03455523	     -0.04184713
      1.30000000	     -0.35256920	      0.14933167	     -0.14933167	      0.35256920	     -0.07138809	      0.57693344	      0.25932761	     -0.25932761	     -0.57693344	      0.07138809	     93.59850762	     83.47389179	     -1.63360213	     19.37818877	     29.54796128	    -68.00221626	      0.38412753	      1.19781725	      0.40054160	      0.59890863	     36.05902196	    -24.13600012	     -5.12397342	      6.94725545	     -5.23567282	     -3.35564462	     21.61695270	    -14.96316693	     10.97396464	     -9.43389541	     10.18741287	     13.92310485	     25.15655059	    -13.26490149	    -13.74137331	     20.25331028	     44.02470565	    -14.52248076	    -28.69599762	      4.95724595	      0.00087735	     -0.03098665	     -0.00484550	      0.00302995	     -0.01822685	     -0.01082208	      0.01257460	     -0.06165101	      0.00542794	     -0.00129323	     -0.18408571	      0.00477242	      0.00816025	     -0.00121310	     -0.00223915	     -0.00242708	     -0.00097083	     -0.00485416	     -0.00310666	     -0.00931999	     -0.00524249	     -0.00001285	     -0.00017911	     -0.00021494	      0.00273609	      0.00959951	      0.00667792	     -0.00895026	      0.02161048	     -0.02049750	      0.00273609	      0.00959951	      0.00667792	      0.00060287	      0.02003375	     -0.01052699	      0.00421475	      0.00533816	      0.01658182	      0.00000000	      0.00933208	      0.00000000	     -0.00783728	     -0.03621842	     -0.00770215	     -0.01931729	     -0.00153946	     -0.00557942	     -0.00097386	      0.01632380	     -0.00667792	      0.00268972	      0.02355821	     -0.01947726	     -0.00653879	      0.01414420	     -0.00598230	     -0.01363408	      0.02986513	     -0.03343596	     -0.02559868	      0.01581368	     -0.00802278	     -0.01697304	      0.03450257	     -0.04178336
      1.33333333	     -0.35236522	      0.14924528	     -0.14924528	      0.35236522	     -0.07134679	      0.57659966	      0.25917758	     -0.25917758	     -0.57659966	      0.07134679	     93.57474995	     83.42559832	     -1.63318748	     19.39257916	     29.84123604	    -70.78218937	      0.39559040	      1.19622463	      0.40878228	      0.59811232	     36.33630115	    -24.18495986	     -4.99703527	      7.08646135	     -6.26476903	     -3.86163354	     21.21344759	    -15.00446304	     11.07142633	     -9.68035929	     10.08403130	     13.78539793	     25.39123937	    -13.35519063	    -14.03986233	     20.16369680	     44.12069273	    -14.52970254	    -28.74366050	      4.86306862	      0.00088706	     -0.03102026	     -0.00485091	      0.00232902	     -0.01830652	     -0.01069245	      0.01278001	     -0.06151819	      0.00565189	     -0.00147925	     -0.18405719	      0.00502118	      0.00849384	     -0.00123233	     -0.00238401	     -0.00242226	     -0.00096890	     -0.00484452	     -0.00310049	     -0.00930147	     -0.00523208	     -0.00001283	     -0.00017489	     -0.00020987	      0.00273451	      0.00959395	      0.00667405	     -0.00894509	      0.02159798	     -0.02048564	      0.00273451	      0.00959395	      0.00667405	      0.00060252	      0.02002216	     -0.01052090	      0.00421305	      0.00533507	      0.01657815	      0.00000000	      0.00932121	      0.00000000	     -0.00783274	     -0.03619747	     -0.00769314	     -0.01933323	     -0.00154188	     -0.00558756	     -0.00097330	      0.01631435	     -0.00667405	      0.00268816	      0.02354458	     -0.01946599	     -0.00653501	      0.01413602	     -0.00597884	     -0.01362619	      0.02984785	     -0.03341662	     -0.02558387	      0.01580453	     -0.00801813	     -0.01696322	      0.03448261	     -0.04175918
      1.36666667	     -0.35226441	      0.14920258	     -0.14920258	      0.35226441	     -0.07132638	      0.57643470	      0.25910343	     -0.25910343	     -0.57643470	      0.07132638	     93.40813281	     83.40173107	     -1.63027947	     19.42706094	     30.42065811	    -74.75391184	      0.40494319	      1.19343946	      0.41534698	      0.59671973	     35.24192738	    -24.11382145	     -5.58877932	      8.42190389	     -6.61410125	     -4.47881030	     18.85594366	    -12.72106922	      9.82019920	    -10.06098022	      9.76600832	     12.23581941	     24.83128848	    -13.42178849	    -19.46854155	     22.77556375	     40.91354555	    -14.54742920	    -30.44104085	      4.88144476	      0.00090622	     -0.03108667	     -0.00486161	      0.00129696	     -0.01846392	     -0.01048846	      0.01307347	     -0.06132843	      0.00597183	     -0.00174088	     -0.18401263	      0.00538667	      0.00897045	     -0.00125566	     -0.00259824	     -0.00241383	     -0.00096553	     -0.00482767	     -0.00308971	     -0.00926913	     -0.00521388	     -0.00001278	     -0.00019105	     -0.00022926	      0.00273373	      0.00959121	      0.00667214	     -0.00894253	      0.02159180	     -0.02047978	      0.00273373	      0.00959121	      0.00667214	      0.00060235	      0.02001643	     -0.01051789	      0.00421221	      0.00533355	      0.01657634	      0.00000000	      0.00931583	      0.00000000	     -0.00783050	     -0.03618711	     -0.00768868	     -0.01937131	     -0.00154758	     -0.00560681	     -0.00097302	      0.01630969	     -0.00667214	      0.00268739	      0.02353784	     -0.01946042	     -0.00653314	      0.01413197	     -0.00597713	     -0.01362229	      0.02983931	     -0.03340705	     -0.02557655	      0.01580001	     -0.00801584	     -0.01695837	      0.03447274	     -0.04174724
